<mxfile host="app.diagrams.net" modified="2023-08-14T07:34:46.018Z" agent="Mozilla/5.0 (Windows NT 10.0; Win64; x64) AppleWebKit/537.36 (KHTML, like Gecko) Chrome/115.0.0.0 Safari/537.36" etag="rlxJ8aKk9d5TzOxluHNd" version="21.6.8" type="google">
  <diagram id="C5RBs43oDa-KdzZeNtuy" name="Page-1">
    <mxGraphModel grid="1" page="1" gridSize="10" guides="1" tooltips="1" connect="1" arrows="1" fold="1" pageScale="1" pageWidth="827" pageHeight="1169" math="0" shadow="0">
      <root>
        <mxCell id="WIyWlLk6GJQsqaUBKTNV-0" />
        <mxCell id="WIyWlLk6GJQsqaUBKTNV-1" parent="WIyWlLk6GJQsqaUBKTNV-0" />
        <mxCell id="8jj2PPhvfqXt3ZcQU5WW-22" value="" style="rounded=0;whiteSpace=wrap;html=1;fillColor=#CCCCFF;strokeColor=#36393d;fillStyle=auto;fontSize=18;" vertex="1" parent="WIyWlLk6GJQsqaUBKTNV-1">
          <mxGeometry x="-440" y="-220" width="1860" height="540" as="geometry" />
        </mxCell>
        <mxCell id="8jj2PPhvfqXt3ZcQU5WW-12" value="" style="rounded=0;whiteSpace=wrap;html=1;fillColor=#FFCCCC;strokeColor=#36393d;fillStyle=auto;fontSize=18;" vertex="1" parent="WIyWlLk6GJQsqaUBKTNV-1">
          <mxGeometry x="-830" y="-1040" width="1220" height="740" as="geometry" />
        </mxCell>
        <mxCell id="8jj2PPhvfqXt3ZcQU5WW-23" value="" style="rounded=0;whiteSpace=wrap;html=1;fillColor=#FFCCE6;strokeColor=#36393d;fillStyle=auto;fontSize=18;" vertex="1" parent="WIyWlLk6GJQsqaUBKTNV-1">
          <mxGeometry x="-440" y="404" width="1860" height="660" as="geometry" />
        </mxCell>
        <mxCell id="8jj2PPhvfqXt3ZcQU5WW-21" value="" style="rounded=0;whiteSpace=wrap;html=1;fillColor=#E6FFCC;strokeColor=#36393d;fillStyle=auto;fontSize=18;" vertex="1" parent="WIyWlLk6GJQsqaUBKTNV-1">
          <mxGeometry x="1239" y="-1040" width="461" height="740" as="geometry" />
        </mxCell>
        <mxCell id="8jj2PPhvfqXt3ZcQU5WW-18" value="" style="rounded=0;whiteSpace=wrap;html=1;fillColor=#FFFFCC;strokeColor=#36393d;fillStyle=auto;fontSize=18;" vertex="1" parent="WIyWlLk6GJQsqaUBKTNV-1">
          <mxGeometry x="979" y="-1040" width="240" height="740" as="geometry" />
        </mxCell>
        <mxCell id="8jj2PPhvfqXt3ZcQU5WW-17" value="" style="rounded=0;whiteSpace=wrap;html=1;fillColor=#FFE6CC;strokeColor=#36393d;fillStyle=auto;fontSize=18;" vertex="1" parent="WIyWlLk6GJQsqaUBKTNV-1">
          <mxGeometry x="414" y="-1040" width="546" height="740" as="geometry" />
        </mxCell>
        <mxCell id="-6DW7zYq6y_BzRsonRjy-107" style="edgeStyle=orthogonalEdgeStyle;rounded=0;orthogonalLoop=1;jettySize=auto;html=1;endArrow=diamondThin;endFill=1;endSize=16;startSize=16;fontSize=18;" edge="1" parent="WIyWlLk6GJQsqaUBKTNV-1" source="-6DW7zYq6y_BzRsonRjy-3" target="-6DW7zYq6y_BzRsonRjy-103">
          <mxGeometry relative="1" as="geometry">
            <Array as="points">
              <mxPoint x="-140" y="670" />
              <mxPoint x="-685" y="670" />
            </Array>
          </mxGeometry>
        </mxCell>
        <mxCell id="-6DW7zYq6y_BzRsonRjy-182" style="edgeStyle=orthogonalEdgeStyle;rounded=0;orthogonalLoop=1;jettySize=auto;html=1;endSize=16;startSize=16;fontSize=18;" edge="1" parent="WIyWlLk6GJQsqaUBKTNV-1" source="-6DW7zYq6y_BzRsonRjy-3" target="-6DW7zYq6y_BzRsonRjy-12">
          <mxGeometry relative="1" as="geometry">
            <Array as="points">
              <mxPoint x="-140" y="1030" />
              <mxPoint x="1064" y="1030" />
            </Array>
          </mxGeometry>
        </mxCell>
        <mxCell id="-6DW7zYq6y_BzRsonRjy-3" value="Client" style="swimlane;fontStyle=0;align=center;verticalAlign=top;childLayout=stackLayout;horizontal=1;startSize=26;horizontalStack=0;resizeParent=1;resizeLast=0;collapsible=1;marginBottom=0;rounded=0;shadow=0;strokeWidth=1;fillColor=none;fontSize=18;" vertex="1" parent="WIyWlLk6GJQsqaUBKTNV-1">
          <mxGeometry x="-410" y="731" width="530" height="216" as="geometry">
            <mxRectangle x="550" y="140" width="160" height="26" as="alternateBounds" />
          </mxGeometry>
        </mxCell>
        <mxCell id="-6DW7zYq6y_BzRsonRjy-4" value="-name: String" style="text;align=left;verticalAlign=top;spacingLeft=4;spacingRight=4;overflow=hidden;rotatable=0;points=[[0,0.5],[1,0.5]];portConstraint=eastwest;fontSize=18;" vertex="1" parent="-6DW7zYq6y_BzRsonRjy-3">
          <mxGeometry y="26" width="530" height="30" as="geometry" />
        </mxCell>
        <mxCell id="8jj2PPhvfqXt3ZcQU5WW-3" value="-personalData: String" style="text;align=left;verticalAlign=top;spacingLeft=4;spacingRight=4;overflow=hidden;rotatable=0;points=[[0,0.5],[1,0.5]];portConstraint=eastwest;fontSize=18;" vertex="1" parent="-6DW7zYq6y_BzRsonRjy-3">
          <mxGeometry y="56" width="530" height="30" as="geometry" />
        </mxCell>
        <mxCell id="-6DW7zYq6y_BzRsonRjy-5" value="" style="line;html=1;strokeWidth=1;align=left;verticalAlign=middle;spacingTop=-1;spacingLeft=3;spacingRight=3;rotatable=0;labelPosition=right;points=[];portConstraint=eastwest;fontSize=18;" vertex="1" parent="-6DW7zYq6y_BzRsonRjy-3">
          <mxGeometry y="86" width="530" height="10" as="geometry" />
        </mxCell>
        <mxCell id="-6DW7zYq6y_BzRsonRjy-6" value="+recieveMedicalTestsList(Administrator): Medical Test[]&#xa;" style="text;align=left;verticalAlign=top;spacingLeft=4;spacingRight=4;overflow=hidden;rotatable=0;points=[[0,0.5],[1,0.5]];portConstraint=eastwest;fontSize=18;" vertex="1" parent="-6DW7zYq6y_BzRsonRjy-3">
          <mxGeometry y="96" width="530" height="30" as="geometry" />
        </mxCell>
        <mxCell id="-6DW7zYq6y_BzRsonRjy-141" value="+payForMedicalTest(Administrator, Medical Test): Appointment[]&#xa;" style="text;align=left;verticalAlign=top;spacingLeft=4;spacingRight=4;overflow=hidden;rotatable=0;points=[[0,0.5],[1,0.5]];portConstraint=eastwest;fontSize=18;" vertex="1" parent="-6DW7zYq6y_BzRsonRjy-3">
          <mxGeometry y="126" width="530" height="30" as="geometry" />
        </mxCell>
        <mxCell id="-6DW7zYq6y_BzRsonRjy-161" value="+visitAppointment(Appointment): Diagnosis&#xa;" style="text;align=left;verticalAlign=top;spacingLeft=4;spacingRight=4;overflow=hidden;rotatable=0;points=[[0,0.5],[1,0.5]];portConstraint=eastwest;fontSize=18;" vertex="1" parent="-6DW7zYq6y_BzRsonRjy-3">
          <mxGeometry y="156" width="530" height="30" as="geometry" />
        </mxCell>
        <mxCell id="-6DW7zYq6y_BzRsonRjy-163" value="+getCertificate(Administrator): Diagnosis&#xa;" style="text;align=left;verticalAlign=top;spacingLeft=4;spacingRight=4;overflow=hidden;rotatable=0;points=[[0,0.5],[1,0.5]];portConstraint=eastwest;fontSize=18;" vertex="1" parent="-6DW7zYq6y_BzRsonRjy-3">
          <mxGeometry y="186" width="530" height="30" as="geometry" />
        </mxCell>
        <mxCell id="-6DW7zYq6y_BzRsonRjy-66" style="edgeStyle=orthogonalEdgeStyle;rounded=0;orthogonalLoop=1;jettySize=auto;html=1;endArrow=block;endFill=0;endSize=16;startSize=16;fontSize=18;entryX=0.5;entryY=1;entryDx=0;entryDy=0;" edge="1" parent="WIyWlLk6GJQsqaUBKTNV-1" source="-6DW7zYq6y_BzRsonRjy-12" target="-6DW7zYq6y_BzRsonRjy-20">
          <mxGeometry relative="1" as="geometry">
            <Array as="points">
              <mxPoint x="940" y="669" />
              <mxPoint x="747" y="669" />
            </Array>
          </mxGeometry>
        </mxCell>
        <mxCell id="tx-_oFmXZFqS6ZWU__PL-14" style="edgeStyle=orthogonalEdgeStyle;rounded=0;orthogonalLoop=1;jettySize=auto;html=1;endSize=16;startSize=16;" edge="1" parent="WIyWlLk6GJQsqaUBKTNV-1" source="-6DW7zYq6y_BzRsonRjy-12" target="-6DW7zYq6y_BzRsonRjy-131">
          <mxGeometry relative="1" as="geometry">
            <Array as="points">
              <mxPoint x="1060" y="400" />
              <mxPoint x="1060" y="400" />
            </Array>
            <mxPoint x="1054.5" y="400" as="targetPoint" />
          </mxGeometry>
        </mxCell>
        <mxCell id="-6DW7zYq6y_BzRsonRjy-12" value="Administrator" style="swimlane;fontStyle=0;align=center;verticalAlign=top;childLayout=stackLayout;horizontal=1;startSize=26;horizontalStack=0;resizeParent=1;resizeLast=0;collapsible=1;marginBottom=0;rounded=0;shadow=0;strokeWidth=1;fillColor=none;fontSize=18;" vertex="1" parent="WIyWlLk6GJQsqaUBKTNV-1">
          <mxGeometry x="788.5" y="754" width="551" height="186" as="geometry">
            <mxRectangle x="550" y="140" width="160" height="26" as="alternateBounds" />
          </mxGeometry>
        </mxCell>
        <mxCell id="-6DW7zYq6y_BzRsonRjy-14" value="" style="line;html=1;strokeWidth=1;align=left;verticalAlign=middle;spacingTop=-1;spacingLeft=3;spacingRight=3;rotatable=0;labelPosition=right;points=[];portConstraint=eastwest;fontSize=18;" vertex="1" parent="-6DW7zYq6y_BzRsonRjy-12">
          <mxGeometry y="26" width="551" height="10" as="geometry" />
        </mxCell>
        <mxCell id="-6DW7zYq6y_BzRsonRjy-15" value="+getMedicalTests(): Medical Test[]" style="text;align=left;verticalAlign=top;spacingLeft=4;spacingRight=4;overflow=hidden;rotatable=0;points=[[0,0.5],[1,0.5]];portConstraint=eastwest;fontSize=18;" vertex="1" parent="-6DW7zYq6y_BzRsonRjy-12">
          <mxGeometry y="36" width="551" height="30" as="geometry" />
        </mxCell>
        <mxCell id="qu2V2VWLO_ML4UmyBdYV-10" value="+getCheckUpTest(): Medical Test" style="text;align=left;verticalAlign=top;spacingLeft=4;spacingRight=4;overflow=hidden;rotatable=0;points=[[0,0.5],[1,0.5]];portConstraint=eastwest;fontSize=18;" vertex="1" parent="-6DW7zYq6y_BzRsonRjy-12">
          <mxGeometry y="66" width="551" height="30" as="geometry" />
        </mxCell>
        <mxCell id="8jj2PPhvfqXt3ZcQU5WW-0" value="+processMedicalTestPayment(Medical Test, Client): Appointment[]" style="text;align=left;verticalAlign=top;spacingLeft=4;spacingRight=4;overflow=hidden;rotatable=0;points=[[0,0.5],[1,0.5]];portConstraint=eastwest;fontSize=18;" vertex="1" parent="-6DW7zYq6y_BzRsonRjy-12">
          <mxGeometry y="96" width="551" height="30" as="geometry" />
        </mxCell>
        <mxCell id="8jj2PPhvfqXt3ZcQU5WW-4" value="+generateCertificate(Client, Medical Test): Certificate" style="text;align=left;verticalAlign=top;spacingLeft=4;spacingRight=4;overflow=hidden;rotatable=0;points=[[0,0.5],[1,0.5]];portConstraint=eastwest;fontSize=18;" vertex="1" parent="-6DW7zYq6y_BzRsonRjy-12">
          <mxGeometry y="126" width="551" height="30" as="geometry" />
        </mxCell>
        <mxCell id="-6DW7zYq6y_BzRsonRjy-67" style="edgeStyle=orthogonalEdgeStyle;rounded=0;orthogonalLoop=1;jettySize=auto;html=1;endArrow=block;endFill=0;endSize=16;startSize=16;fontSize=18;entryX=0.5;entryY=1;entryDx=0;entryDy=0;" edge="1" parent="WIyWlLk6GJQsqaUBKTNV-1" source="-6DW7zYq6y_BzRsonRjy-16" target="-6DW7zYq6y_BzRsonRjy-20">
          <mxGeometry relative="1" as="geometry">
            <Array as="points">
              <mxPoint x="580" y="669" />
              <mxPoint x="747" y="669" />
            </Array>
          </mxGeometry>
        </mxCell>
        <mxCell id="-6DW7zYq6y_BzRsonRjy-78" style="edgeStyle=orthogonalEdgeStyle;rounded=0;orthogonalLoop=1;jettySize=auto;html=1;endArrow=diamondThin;endFill=1;endSize=16;startSize=16;fontSize=18;" edge="1" parent="WIyWlLk6GJQsqaUBKTNV-1" source="-6DW7zYq6y_BzRsonRjy-16" target="-6DW7zYq6y_BzRsonRjy-70">
          <mxGeometry relative="1" as="geometry">
            <Array as="points">
              <mxPoint x="480" y="980" />
              <mxPoint x="1830" y="980" />
              <mxPoint x="1830" y="-650" />
            </Array>
          </mxGeometry>
        </mxCell>
        <mxCell id="tx-_oFmXZFqS6ZWU__PL-11" style="edgeStyle=orthogonalEdgeStyle;rounded=0;orthogonalLoop=1;jettySize=auto;html=1;exitX=0.5;exitY=0;exitDx=0;exitDy=0;endSize=16;startSize=16;" edge="1" parent="WIyWlLk6GJQsqaUBKTNV-1" source="-6DW7zYq6y_BzRsonRjy-16" target="-6DW7zYq6y_BzRsonRjy-174">
          <mxGeometry relative="1" as="geometry">
            <Array as="points">
              <mxPoint x="430" y="370" />
              <mxPoint x="250" y="370" />
            </Array>
          </mxGeometry>
        </mxCell>
        <mxCell id="-6DW7zYq6y_BzRsonRjy-16" value="Doctor" style="swimlane;fontStyle=0;align=center;verticalAlign=top;childLayout=stackLayout;horizontal=1;startSize=26;horizontalStack=0;resizeParent=1;resizeLast=0;collapsible=1;marginBottom=0;rounded=0;shadow=0;strokeWidth=1;fillColor=none;fontSize=18;" vertex="1" parent="WIyWlLk6GJQsqaUBKTNV-1">
          <mxGeometry x="160" y="754" width="540" height="170" as="geometry">
            <mxRectangle x="550" y="140" width="160" height="26" as="alternateBounds" />
          </mxGeometry>
        </mxCell>
        <mxCell id="-6DW7zYq6y_BzRsonRjy-17" value="-title: Doctor Title" style="text;align=left;verticalAlign=top;spacingLeft=4;spacingRight=4;overflow=hidden;rotatable=0;points=[[0,0.5],[1,0.5]];portConstraint=eastwest;fillColor=none;fontSize=18;" vertex="1" parent="-6DW7zYq6y_BzRsonRjy-16">
          <mxGeometry y="26" width="540" height="30" as="geometry" />
        </mxCell>
        <mxCell id="-6DW7zYq6y_BzRsonRjy-18" value="" style="line;html=1;strokeWidth=1;align=left;verticalAlign=middle;spacingTop=-1;spacingLeft=3;spacingRight=3;rotatable=0;labelPosition=right;points=[];portConstraint=eastwest;fontSize=18;" vertex="1" parent="-6DW7zYq6y_BzRsonRjy-16">
          <mxGeometry y="56" width="540" height="10" as="geometry" />
        </mxCell>
        <mxCell id="-6DW7zYq6y_BzRsonRjy-19" value="+provideAppointmentMedicalTest(Client, Appointment): Diagnosis" style="text;align=left;verticalAlign=top;spacingLeft=4;spacingRight=4;overflow=hidden;rotatable=0;points=[[0,0.5],[1,0.5]];portConstraint=eastwest;fontSize=18;" vertex="1" parent="-6DW7zYq6y_BzRsonRjy-16">
          <mxGeometry y="66" width="540" height="30" as="geometry" />
        </mxCell>
        <mxCell id="-6DW7zYq6y_BzRsonRjy-69" style="edgeStyle=orthogonalEdgeStyle;rounded=0;orthogonalLoop=1;jettySize=auto;html=1;endArrow=diamondThin;endFill=0;endSize=16;startSize=16;fontSize=18;" edge="1" parent="WIyWlLk6GJQsqaUBKTNV-1" source="-6DW7zYq6y_BzRsonRjy-20" target="-6DW7zYq6y_BzRsonRjy-48">
          <mxGeometry relative="1" as="geometry">
            <Array as="points">
              <mxPoint x="1800" y="440" />
              <mxPoint x="1800" y="-449" />
            </Array>
            <mxPoint x="1500.000000000001" y="-449" as="targetPoint" />
          </mxGeometry>
        </mxCell>
        <mxCell id="-6DW7zYq6y_BzRsonRjy-20" value="Employee" style="swimlane;fontStyle=0;align=center;verticalAlign=top;childLayout=stackLayout;horizontal=1;startSize=26;horizontalStack=0;resizeParent=1;resizeLast=0;collapsible=1;marginBottom=0;rounded=0;shadow=0;strokeWidth=1;fillColor=none;fontSize=18;" vertex="1" parent="WIyWlLk6GJQsqaUBKTNV-1">
          <mxGeometry x="634" y="514" width="226" height="100" as="geometry">
            <mxRectangle x="550" y="140" width="160" height="26" as="alternateBounds" />
          </mxGeometry>
        </mxCell>
        <mxCell id="-6DW7zYq6y_BzRsonRjy-21" value="-name: String" style="text;align=left;verticalAlign=top;spacingLeft=4;spacingRight=4;overflow=hidden;rotatable=0;points=[[0,0.5],[1,0.5]];portConstraint=eastwest;fontSize=18;" vertex="1" parent="-6DW7zYq6y_BzRsonRjy-20">
          <mxGeometry y="26" width="226" height="30" as="geometry" />
        </mxCell>
        <mxCell id="-6DW7zYq6y_BzRsonRjy-22" value="" style="line;html=1;strokeWidth=1;align=left;verticalAlign=middle;spacingTop=-1;spacingLeft=3;spacingRight=3;rotatable=0;labelPosition=right;points=[];portConstraint=eastwest;fontSize=18;" vertex="1" parent="-6DW7zYq6y_BzRsonRjy-20">
          <mxGeometry y="56" width="226" height="10" as="geometry" />
        </mxCell>
        <mxCell id="tx-_oFmXZFqS6ZWU__PL-4" style="edgeStyle=orthogonalEdgeStyle;rounded=0;orthogonalLoop=1;jettySize=auto;html=1;exitX=0.5;exitY=0;exitDx=0;exitDy=0;entryX=0.5;entryY=1;entryDx=0;entryDy=0;endSize=16;startSize=16;" edge="1" parent="WIyWlLk6GJQsqaUBKTNV-1" source="-6DW7zYq6y_BzRsonRjy-30" target="-6DW7zYq6y_BzRsonRjy-40">
          <mxGeometry relative="1" as="geometry">
            <Array as="points">
              <mxPoint x="555" y="-250" />
              <mxPoint x="-160" y="-250" />
            </Array>
          </mxGeometry>
        </mxCell>
        <mxCell id="-6DW7zYq6y_BzRsonRjy-30" value="Basic Terminal" style="swimlane;fontStyle=0;align=center;verticalAlign=top;childLayout=stackLayout;horizontal=1;startSize=26;horizontalStack=0;resizeParent=1;resizeLast=0;collapsible=1;marginBottom=0;rounded=0;shadow=0;strokeWidth=1;fillColor=none;fontSize=18;" vertex="1" parent="WIyWlLk6GJQsqaUBKTNV-1">
          <mxGeometry x="410" y="-90" width="290" height="100" as="geometry">
            <mxRectangle x="550" y="140" width="160" height="26" as="alternateBounds" />
          </mxGeometry>
        </mxCell>
        <mxCell id="-6DW7zYq6y_BzRsonRjy-32" value="" style="line;html=1;strokeWidth=1;align=left;verticalAlign=middle;spacingTop=-1;spacingLeft=3;spacingRight=3;rotatable=0;labelPosition=right;points=[];portConstraint=eastwest;fontSize=18;" vertex="1" parent="-6DW7zYq6y_BzRsonRjy-30">
          <mxGeometry y="26" width="290" height="10" as="geometry" />
        </mxCell>
        <mxCell id="-6DW7zYq6y_BzRsonRjy-173" value="+getPatient(Client): Patient" style="text;align=left;verticalAlign=top;spacingLeft=4;spacingRight=4;overflow=hidden;rotatable=0;points=[[0,0.5],[1,0.5]];portConstraint=eastwest;fontSize=18;" vertex="1" parent="-6DW7zYq6y_BzRsonRjy-30">
          <mxGeometry y="36" width="290" height="30" as="geometry" />
        </mxCell>
        <mxCell id="-6DW7zYq6y_BzRsonRjy-36" value="Payment Service" style="swimlane;fontStyle=0;align=center;verticalAlign=top;childLayout=stackLayout;horizontal=1;startSize=26;horizontalStack=0;resizeParent=1;resizeLast=0;collapsible=1;marginBottom=0;rounded=0;shadow=0;strokeWidth=1;fillColor=none;fontSize=18;" vertex="1" parent="WIyWlLk6GJQsqaUBKTNV-1">
          <mxGeometry x="994" y="-500" width="210" height="100" as="geometry">
            <mxRectangle x="550" y="140" width="160" height="26" as="alternateBounds" />
          </mxGeometry>
        </mxCell>
        <mxCell id="-6DW7zYq6y_BzRsonRjy-37" value="-funds: Float" style="text;align=left;verticalAlign=top;spacingLeft=4;spacingRight=4;overflow=hidden;rotatable=0;points=[[0,0.5],[1,0.5]];portConstraint=eastwest;fontSize=18;" vertex="1" parent="-6DW7zYq6y_BzRsonRjy-36">
          <mxGeometry y="26" width="210" height="30" as="geometry" />
        </mxCell>
        <mxCell id="-6DW7zYq6y_BzRsonRjy-38" value="" style="line;html=1;strokeWidth=1;align=left;verticalAlign=middle;spacingTop=-1;spacingLeft=3;spacingRight=3;rotatable=0;labelPosition=right;points=[];portConstraint=eastwest;fontSize=18;" vertex="1" parent="-6DW7zYq6y_BzRsonRjy-36">
          <mxGeometry y="56" width="210" height="10" as="geometry" />
        </mxCell>
        <mxCell id="-6DW7zYq6y_BzRsonRjy-39" value="+addFunds(Float): void" style="text;align=left;verticalAlign=top;spacingLeft=4;spacingRight=4;overflow=hidden;rotatable=0;points=[[0,0.5],[1,0.5]];portConstraint=eastwest;fontSize=18;" vertex="1" parent="-6DW7zYq6y_BzRsonRjy-36">
          <mxGeometry y="66" width="210" height="30" as="geometry" />
        </mxCell>
        <mxCell id="-6DW7zYq6y_BzRsonRjy-40" value="Repository Service" style="swimlane;fontStyle=0;align=center;verticalAlign=top;childLayout=stackLayout;horizontal=1;startSize=26;horizontalStack=0;resizeParent=1;resizeLast=0;collapsible=1;marginBottom=0;rounded=0;shadow=0;strokeWidth=1;fillColor=none;fontSize=18;" vertex="1" parent="WIyWlLk6GJQsqaUBKTNV-1">
          <mxGeometry x="-425" y="-510" width="530" height="186" as="geometry">
            <mxRectangle x="550" y="140" width="160" height="26" as="alternateBounds" />
          </mxGeometry>
        </mxCell>
        <mxCell id="-6DW7zYq6y_BzRsonRjy-42" value="" style="line;html=1;strokeWidth=1;align=left;verticalAlign=middle;spacingTop=-1;spacingLeft=3;spacingRight=3;rotatable=0;labelPosition=right;points=[];portConstraint=eastwest;fontSize=18;" vertex="1" parent="-6DW7zYq6y_BzRsonRjy-40">
          <mxGeometry y="26" width="530" height="10" as="geometry" />
        </mxCell>
        <mxCell id="-6DW7zYq6y_BzRsonRjy-33" value="+getMedicalTests(): Medical Test[]" style="text;align=left;verticalAlign=top;spacingLeft=4;spacingRight=4;overflow=hidden;rotatable=0;points=[[0,0.5],[1,0.5]];portConstraint=eastwest;fontSize=18;" vertex="1" parent="-6DW7zYq6y_BzRsonRjy-40">
          <mxGeometry y="36" width="530" height="30" as="geometry" />
        </mxCell>
        <mxCell id="8jj2PPhvfqXt3ZcQU5WW-2" value="+getPatient(Client): Patient" style="text;align=left;verticalAlign=top;spacingLeft=4;spacingRight=4;overflow=hidden;rotatable=0;points=[[0,0.5],[1,0.5]];portConstraint=eastwest;fontSize=18;" vertex="1" parent="-6DW7zYq6y_BzRsonRjy-40">
          <mxGeometry y="66" width="530" height="30" as="geometry" />
        </mxCell>
        <mxCell id="8jj2PPhvfqXt3ZcQU5WW-5" value="+getDiagnosis(Patient, Medical Test): Diagnosis" style="text;align=left;verticalAlign=top;spacingLeft=4;spacingRight=4;overflow=hidden;rotatable=0;points=[[0,0.5],[1,0.5]];portConstraint=eastwest;fontSize=18;" vertex="1" parent="-6DW7zYq6y_BzRsonRjy-40">
          <mxGeometry y="96" width="530" height="30" as="geometry" />
        </mxCell>
        <mxCell id="qu2V2VWLO_ML4UmyBdYV-1" value="+createDiagnosis(Patient, Medical Test, String): Diagnosis" style="text;align=left;verticalAlign=top;spacingLeft=4;spacingRight=4;overflow=hidden;rotatable=0;points=[[0,0.5],[1,0.5]];portConstraint=eastwest;fontSize=18;" vertex="1" parent="-6DW7zYq6y_BzRsonRjy-40">
          <mxGeometry y="126" width="530" height="30" as="geometry" />
        </mxCell>
        <mxCell id="qu2V2VWLO_ML4UmyBdYV-2" value="+createCertificate(Patient, Medical Test): Certificate" style="text;align=left;verticalAlign=top;spacingLeft=4;spacingRight=4;overflow=hidden;rotatable=0;points=[[0,0.5],[1,0.5]];portConstraint=eastwest;fontSize=18;" vertex="1" parent="-6DW7zYq6y_BzRsonRjy-40">
          <mxGeometry y="156" width="530" height="30" as="geometry" />
        </mxCell>
        <mxCell id="-6DW7zYq6y_BzRsonRjy-44" value="Schedule Service" style="swimlane;fontStyle=0;align=center;verticalAlign=top;childLayout=stackLayout;horizontal=1;startSize=26;horizontalStack=0;resizeParent=1;resizeLast=0;collapsible=1;marginBottom=0;rounded=0;shadow=0;strokeWidth=1;fillColor=none;fontSize=18;" vertex="1" parent="WIyWlLk6GJQsqaUBKTNV-1">
          <mxGeometry x="430" y="-500" width="521" height="100" as="geometry">
            <mxRectangle x="550" y="140" width="160" height="26" as="alternateBounds" />
          </mxGeometry>
        </mxCell>
        <mxCell id="-6DW7zYq6y_BzRsonRjy-46" value="" style="line;html=1;strokeWidth=1;align=left;verticalAlign=middle;spacingTop=-1;spacingLeft=3;spacingRight=3;rotatable=0;labelPosition=right;points=[];portConstraint=eastwest;fontSize=18;" vertex="1" parent="-6DW7zYq6y_BzRsonRjy-44">
          <mxGeometry y="26" width="521" height="10" as="geometry" />
        </mxCell>
        <mxCell id="-6DW7zYq6y_BzRsonRjy-47" value="+createAppointment(Patient, Medical Test, Doctor): Appoitment" style="text;align=left;verticalAlign=top;spacingLeft=4;spacingRight=4;overflow=hidden;rotatable=0;points=[[0,0.5],[1,0.5]];portConstraint=eastwest;fontSize=18;" vertex="1" parent="-6DW7zYq6y_BzRsonRjy-44">
          <mxGeometry y="36" width="521" height="30" as="geometry" />
        </mxCell>
        <mxCell id="-6DW7zYq6y_BzRsonRjy-48" value="Employee Manager Service" style="swimlane;fontStyle=0;align=center;verticalAlign=top;childLayout=stackLayout;horizontal=1;startSize=26;horizontalStack=0;resizeParent=1;resizeLast=0;collapsible=1;marginBottom=0;rounded=0;shadow=0;strokeWidth=1;fillColor=none;fontSize=18;" vertex="1" parent="WIyWlLk6GJQsqaUBKTNV-1">
          <mxGeometry x="1259" y="-500" width="421" height="126" as="geometry">
            <mxRectangle x="550" y="140" width="160" height="26" as="alternateBounds" />
          </mxGeometry>
        </mxCell>
        <mxCell id="-6DW7zYq6y_BzRsonRjy-50" value="" style="line;html=1;strokeWidth=1;align=left;verticalAlign=middle;spacingTop=-1;spacingLeft=3;spacingRight=3;rotatable=0;labelPosition=right;points=[];portConstraint=eastwest;fontSize=18;" vertex="1" parent="-6DW7zYq6y_BzRsonRjy-48">
          <mxGeometry y="26" width="421" height="10" as="geometry" />
        </mxCell>
        <mxCell id="qu2V2VWLO_ML4UmyBdYV-4" value="+getDoctorsForMedicalTest(Medical Test): Doctor[]" style="text;align=left;verticalAlign=top;spacingLeft=4;spacingRight=4;overflow=hidden;rotatable=0;points=[[0,0.5],[1,0.5]];portConstraint=eastwest;fontSize=18;" vertex="1" parent="-6DW7zYq6y_BzRsonRjy-48">
          <mxGeometry y="36" width="421" height="30" as="geometry" />
        </mxCell>
        <mxCell id="qu2V2VWLO_ML4UmyBdYV-5" value="+getDoctorsList(): Doctor[]" style="text;align=left;verticalAlign=top;spacingLeft=4;spacingRight=4;overflow=hidden;rotatable=0;points=[[0,0.5],[1,0.5]];portConstraint=eastwest;fontSize=18;" vertex="1" parent="-6DW7zYq6y_BzRsonRjy-48">
          <mxGeometry y="66" width="421" height="30" as="geometry" />
        </mxCell>
        <mxCell id="qu2V2VWLO_ML4UmyBdYV-3" style="edgeStyle=orthogonalEdgeStyle;rounded=0;orthogonalLoop=1;jettySize=auto;html=1;entryX=0.5;entryY=0;entryDx=0;entryDy=0;endArrow=diamondThin;endFill=0;endSize=16;startSize=16;" edge="1" parent="WIyWlLk6GJQsqaUBKTNV-1" source="-6DW7zYq6y_BzRsonRjy-70" target="-6DW7zYq6y_BzRsonRjy-44">
          <mxGeometry relative="1" as="geometry" />
        </mxCell>
        <mxCell id="-6DW7zYq6y_BzRsonRjy-70" value="Appointment" style="swimlane;fontStyle=0;align=center;verticalAlign=top;childLayout=stackLayout;horizontal=1;startSize=26;horizontalStack=0;resizeParent=1;resizeLast=0;collapsible=1;marginBottom=0;rounded=0;shadow=0;strokeWidth=1;fillColor=none;fontSize=18;" vertex="1" parent="WIyWlLk6GJQsqaUBKTNV-1">
          <mxGeometry x="610.5" y="-700" width="160" height="110" as="geometry">
            <mxRectangle x="550" y="140" width="160" height="26" as="alternateBounds" />
          </mxGeometry>
        </mxCell>
        <mxCell id="8jj2PPhvfqXt3ZcQU5WW-27" value="-date: String" style="text;align=left;verticalAlign=top;spacingLeft=4;spacingRight=4;overflow=hidden;rotatable=0;points=[[0,0.5],[1,0.5]];portConstraint=eastwest;fontSize=18;" vertex="1" parent="-6DW7zYq6y_BzRsonRjy-70">
          <mxGeometry y="26" width="160" height="30" as="geometry" />
        </mxCell>
        <mxCell id="-6DW7zYq6y_BzRsonRjy-72" value="" style="line;html=1;strokeWidth=1;align=left;verticalAlign=middle;spacingTop=-1;spacingLeft=3;spacingRight=3;rotatable=0;labelPosition=right;points=[];portConstraint=eastwest;fontSize=18;" vertex="1" parent="-6DW7zYq6y_BzRsonRjy-70">
          <mxGeometry y="56" width="160" height="24" as="geometry" />
        </mxCell>
        <mxCell id="-6DW7zYq6y_BzRsonRjy-89" style="edgeStyle=orthogonalEdgeStyle;rounded=0;orthogonalLoop=1;jettySize=auto;html=1;endArrow=diamondThin;endFill=1;endSize=16;startSize=16;fontSize=18;" edge="1" parent="WIyWlLk6GJQsqaUBKTNV-1" source="-6DW7zYq6y_BzRsonRjy-79" target="-6DW7zYq6y_BzRsonRjy-85">
          <mxGeometry relative="1" as="geometry" />
        </mxCell>
        <mxCell id="-6DW7zYq6y_BzRsonRjy-157" style="edgeStyle=orthogonalEdgeStyle;rounded=0;orthogonalLoop=1;jettySize=auto;html=1;endSize=16;startSize=16;endArrow=block;endFill=0;fontSize=18;" edge="1" parent="WIyWlLk6GJQsqaUBKTNV-1" source="-6DW7zYq6y_BzRsonRjy-79" target="-6DW7zYq6y_BzRsonRjy-152">
          <mxGeometry relative="1" as="geometry" />
        </mxCell>
        <mxCell id="-6DW7zYq6y_BzRsonRjy-79" value="Basic Medical Test" style="swimlane;fontStyle=0;align=center;verticalAlign=top;childLayout=stackLayout;horizontal=1;startSize=26;horizontalStack=0;resizeParent=1;resizeLast=0;collapsible=1;marginBottom=0;rounded=0;shadow=0;strokeWidth=1;fillColor=none;fontSize=18;" vertex="1" parent="WIyWlLk6GJQsqaUBKTNV-1">
          <mxGeometry x="200" y="-880" width="170" height="100" as="geometry">
            <mxRectangle x="550" y="140" width="160" height="26" as="alternateBounds" />
          </mxGeometry>
        </mxCell>
        <mxCell id="-6DW7zYq6y_BzRsonRjy-81" value="" style="line;html=1;strokeWidth=1;align=left;verticalAlign=middle;spacingTop=-1;spacingLeft=3;spacingRight=3;rotatable=0;labelPosition=right;points=[];portConstraint=eastwest;fontSize=18;" vertex="1" parent="-6DW7zYq6y_BzRsonRjy-79">
          <mxGeometry y="26" width="170" height="10" as="geometry" />
        </mxCell>
        <mxCell id="-6DW7zYq6y_BzRsonRjy-158" style="edgeStyle=orthogonalEdgeStyle;rounded=0;orthogonalLoop=1;jettySize=auto;html=1;endSize=16;startSize=16;endArrow=block;endFill=0;fontSize=18;" edge="1" parent="WIyWlLk6GJQsqaUBKTNV-1" source="-6DW7zYq6y_BzRsonRjy-85" target="-6DW7zYq6y_BzRsonRjy-152">
          <mxGeometry relative="1" as="geometry" />
        </mxCell>
        <mxCell id="-6DW7zYq6y_BzRsonRjy-85" value="Medical Test Package" style="swimlane;fontStyle=0;align=center;verticalAlign=top;childLayout=stackLayout;horizontal=1;startSize=26;horizontalStack=0;resizeParent=1;resizeLast=0;collapsible=1;marginBottom=0;rounded=0;shadow=0;strokeWidth=1;fillColor=none;fontSize=18;" vertex="1" parent="WIyWlLk6GJQsqaUBKTNV-1">
          <mxGeometry x="-180" y="-880" width="330" height="100" as="geometry">
            <mxRectangle x="550" y="140" width="160" height="26" as="alternateBounds" />
          </mxGeometry>
        </mxCell>
        <mxCell id="-6DW7zYq6y_BzRsonRjy-87" value="" style="line;html=1;strokeWidth=1;align=left;verticalAlign=middle;spacingTop=-1;spacingLeft=3;spacingRight=3;rotatable=0;labelPosition=right;points=[];portConstraint=eastwest;fontSize=18;" vertex="1" parent="-6DW7zYq6y_BzRsonRjy-85">
          <mxGeometry y="26" width="330" height="10" as="geometry" />
        </mxCell>
        <mxCell id="qu2V2VWLO_ML4UmyBdYV-0" value="-getPackageTests: Basic Medical Test[]" style="text;align=left;verticalAlign=top;spacingLeft=4;spacingRight=4;overflow=hidden;rotatable=0;points=[[0,0.5],[1,0.5]];portConstraint=eastwest;fillColor=none;fontSize=18;" vertex="1" parent="-6DW7zYq6y_BzRsonRjy-85">
          <mxGeometry y="36" width="330" height="30" as="geometry" />
        </mxCell>
        <mxCell id="-6DW7zYq6y_BzRsonRjy-98" style="edgeStyle=orthogonalEdgeStyle;rounded=0;orthogonalLoop=1;jettySize=auto;html=1;endArrow=diamondThin;endFill=0;endSize=16;startSize=16;fontSize=18;" edge="1" parent="WIyWlLk6GJQsqaUBKTNV-1" source="-6DW7zYq6y_BzRsonRjy-94" target="-6DW7zYq6y_BzRsonRjy-40">
          <mxGeometry relative="1" as="geometry">
            <Array as="points">
              <mxPoint x="-400" y="-570" />
              <mxPoint x="-180" y="-570" />
            </Array>
          </mxGeometry>
        </mxCell>
        <mxCell id="-6DW7zYq6y_BzRsonRjy-94" value="Certificate" style="swimlane;fontStyle=0;align=center;verticalAlign=top;childLayout=stackLayout;horizontal=1;startSize=30;horizontalStack=0;resizeParent=1;resizeLast=0;collapsible=1;marginBottom=0;rounded=0;shadow=0;strokeWidth=1;fillColor=none;fontSize=18;" vertex="1" parent="WIyWlLk6GJQsqaUBKTNV-1">
          <mxGeometry x="-538" y="-710" width="250" height="130" as="geometry">
            <mxRectangle x="550" y="140" width="160" height="26" as="alternateBounds" />
          </mxGeometry>
        </mxCell>
        <mxCell id="-6DW7zYq6y_BzRsonRjy-95" value="-certificateInfo: String" style="text;align=left;verticalAlign=top;spacingLeft=4;spacingRight=4;overflow=hidden;rotatable=0;points=[[0,0.5],[1,0.5]];portConstraint=eastwest;fontSize=18;" vertex="1" parent="-6DW7zYq6y_BzRsonRjy-94">
          <mxGeometry y="30" width="250" height="30" as="geometry" />
        </mxCell>
        <mxCell id="-6DW7zYq6y_BzRsonRjy-96" value="" style="line;html=1;strokeWidth=1;align=left;verticalAlign=middle;spacingTop=-1;spacingLeft=3;spacingRight=3;rotatable=0;labelPosition=right;points=[];portConstraint=eastwest;fontSize=18;" vertex="1" parent="-6DW7zYq6y_BzRsonRjy-94">
          <mxGeometry y="60" width="250" height="10" as="geometry" />
        </mxCell>
        <mxCell id="-6DW7zYq6y_BzRsonRjy-115" style="edgeStyle=orthogonalEdgeStyle;rounded=0;orthogonalLoop=1;jettySize=auto;html=1;endArrow=diamondThin;endFill=1;endSize=16;startSize=16;fontSize=18;entryX=0.5;entryY=0;entryDx=0;entryDy=0;" edge="1" parent="WIyWlLk6GJQsqaUBKTNV-1" source="-6DW7zYq6y_BzRsonRjy-103" target="-6DW7zYq6y_BzRsonRjy-70">
          <mxGeometry relative="1" as="geometry">
            <Array as="points">
              <mxPoint x="-650" y="-900" />
              <mxPoint x="690" y="-900" />
              <mxPoint x="690" y="-700" />
            </Array>
          </mxGeometry>
        </mxCell>
        <mxCell id="8jj2PPhvfqXt3ZcQU5WW-1" style="edgeStyle=orthogonalEdgeStyle;rounded=0;orthogonalLoop=1;jettySize=auto;html=1;endArrow=diamondThin;endFill=0;startSize=16;endSize=16;fontSize=18;" edge="1" parent="WIyWlLk6GJQsqaUBKTNV-1" source="-6DW7zYq6y_BzRsonRjy-103" target="-6DW7zYq6y_BzRsonRjy-40">
          <mxGeometry relative="1" as="geometry">
            <Array as="points">
              <mxPoint x="-600" y="-550" />
              <mxPoint x="-210" y="-550" />
            </Array>
          </mxGeometry>
        </mxCell>
        <mxCell id="-6DW7zYq6y_BzRsonRjy-103" value="Patient" style="swimlane;fontStyle=0;align=center;verticalAlign=top;childLayout=stackLayout;horizontal=1;startSize=26;horizontalStack=0;resizeParent=1;resizeLast=0;collapsible=1;marginBottom=0;rounded=0;shadow=0;strokeWidth=1;fillColor=none;fontSize=18;" vertex="1" parent="WIyWlLk6GJQsqaUBKTNV-1">
          <mxGeometry x="-810" y="-710" width="250" height="130" as="geometry">
            <mxRectangle x="550" y="140" width="160" height="26" as="alternateBounds" />
          </mxGeometry>
        </mxCell>
        <mxCell id="8jj2PPhvfqXt3ZcQU5WW-25" value="-additionalInfo: String" style="text;align=left;verticalAlign=top;spacingLeft=4;spacingRight=4;overflow=hidden;rotatable=0;points=[[0,0.5],[1,0.5]];portConstraint=eastwest;fontSize=18;" vertex="1" parent="-6DW7zYq6y_BzRsonRjy-103">
          <mxGeometry y="26" width="250" height="30" as="geometry" />
        </mxCell>
        <mxCell id="8jj2PPhvfqXt3ZcQU5WW-26" value="" style="line;html=1;strokeWidth=1;align=left;verticalAlign=middle;spacingTop=-1;spacingLeft=3;spacingRight=3;rotatable=0;labelPosition=right;points=[];portConstraint=eastwest;fontSize=18;" vertex="1" parent="-6DW7zYq6y_BzRsonRjy-103">
          <mxGeometry y="56" width="250" height="10" as="geometry" />
        </mxCell>
        <mxCell id="-6DW7zYq6y_BzRsonRjy-114" style="edgeStyle=orthogonalEdgeStyle;rounded=0;orthogonalLoop=1;jettySize=auto;html=1;endArrow=diamondThin;endFill=0;endSize=16;startSize=16;fontSize=18;" edge="1" parent="WIyWlLk6GJQsqaUBKTNV-1" source="-6DW7zYq6y_BzRsonRjy-110" target="-6DW7zYq6y_BzRsonRjy-40">
          <mxGeometry relative="1" as="geometry">
            <Array as="points">
              <mxPoint x="-150" y="-550" />
              <mxPoint x="-150" y="-550" />
            </Array>
          </mxGeometry>
        </mxCell>
        <mxCell id="-6DW7zYq6y_BzRsonRjy-117" style="edgeStyle=orthogonalEdgeStyle;rounded=0;orthogonalLoop=1;jettySize=auto;html=1;endArrow=diamondThin;endFill=1;endSize=16;startSize=16;fontSize=18;" edge="1" parent="WIyWlLk6GJQsqaUBKTNV-1" source="-6DW7zYq6y_BzRsonRjy-110" target="-6DW7zYq6y_BzRsonRjy-94">
          <mxGeometry relative="1" as="geometry" />
        </mxCell>
        <mxCell id="-6DW7zYq6y_BzRsonRjy-149" style="edgeStyle=orthogonalEdgeStyle;rounded=0;orthogonalLoop=1;jettySize=auto;html=1;endArrow=none;endFill=0;endSize=16;startSize=16;jumpStyle=none;shadow=0;startArrow=diamondThin;startFill=1;fontSize=18;" edge="1" parent="WIyWlLk6GJQsqaUBKTNV-1" source="-6DW7zYq6y_BzRsonRjy-110" target="-6DW7zYq6y_BzRsonRjy-103">
          <mxGeometry relative="1" as="geometry">
            <Array as="points">
              <mxPoint x="-160" y="-760" />
              <mxPoint x="-610" y="-760" />
            </Array>
          </mxGeometry>
        </mxCell>
        <mxCell id="-6DW7zYq6y_BzRsonRjy-110" value="Diagnosis" style="swimlane;fontStyle=0;align=center;verticalAlign=top;childLayout=stackLayout;horizontal=1;startSize=30;horizontalStack=0;resizeParent=1;resizeLast=0;collapsible=1;marginBottom=0;rounded=0;shadow=0;strokeWidth=1;fillColor=none;fontSize=18;" vertex="1" parent="WIyWlLk6GJQsqaUBKTNV-1">
          <mxGeometry x="-230" y="-710" width="250" height="130" as="geometry">
            <mxRectangle x="550" y="140" width="160" height="26" as="alternateBounds" />
          </mxGeometry>
        </mxCell>
        <mxCell id="-6DW7zYq6y_BzRsonRjy-111" value="-result: String" style="text;align=left;verticalAlign=top;spacingLeft=4;spacingRight=4;overflow=hidden;rotatable=0;points=[[0,0.5],[1,0.5]];portConstraint=eastwest;fontSize=18;" vertex="1" parent="-6DW7zYq6y_BzRsonRjy-110">
          <mxGeometry y="30" width="250" height="30" as="geometry" />
        </mxCell>
        <mxCell id="8jj2PPhvfqXt3ZcQU5WW-9" value="-positive: Boolean" style="text;align=left;verticalAlign=top;spacingLeft=4;spacingRight=4;overflow=hidden;rotatable=0;points=[[0,0.5],[1,0.5]];portConstraint=eastwest;fontSize=18;" vertex="1" parent="-6DW7zYq6y_BzRsonRjy-110">
          <mxGeometry y="60" width="250" height="30" as="geometry" />
        </mxCell>
        <mxCell id="-6DW7zYq6y_BzRsonRjy-112" value="" style="line;html=1;strokeWidth=1;align=left;verticalAlign=middle;spacingTop=-1;spacingLeft=3;spacingRight=3;rotatable=0;labelPosition=right;points=[];portConstraint=eastwest;fontSize=18;" vertex="1" parent="-6DW7zYq6y_BzRsonRjy-110">
          <mxGeometry y="90" width="250" height="10" as="geometry" />
        </mxCell>
        <mxCell id="-6DW7zYq6y_BzRsonRjy-128" style="edgeStyle=orthogonalEdgeStyle;rounded=0;orthogonalLoop=1;jettySize=auto;html=1;endArrow=diamondThin;endFill=1;endSize=16;startSize=16;fontSize=18;" edge="1" parent="WIyWlLk6GJQsqaUBKTNV-1" source="-6DW7zYq6y_BzRsonRjy-124" target="-6DW7zYq6y_BzRsonRjy-30">
          <mxGeometry relative="1" as="geometry">
            <mxPoint x="215" y="160" as="sourcePoint" />
          </mxGeometry>
        </mxCell>
        <mxCell id="-6DW7zYq6y_BzRsonRjy-124" value="Clinic" style="swimlane;fontStyle=0;align=center;verticalAlign=top;childLayout=stackLayout;horizontal=1;startSize=26;horizontalStack=0;resizeParent=1;resizeLast=0;collapsible=1;marginBottom=0;rounded=0;shadow=0;strokeWidth=1;fillColor=none;fontSize=18;" vertex="1" parent="WIyWlLk6GJQsqaUBKTNV-1">
          <mxGeometry x="90" y="-90" width="240" height="100" as="geometry">
            <mxRectangle x="550" y="140" width="160" height="26" as="alternateBounds" />
          </mxGeometry>
        </mxCell>
        <mxCell id="-6DW7zYq6y_BzRsonRjy-125" value="-name: string" style="text;align=left;verticalAlign=top;spacingLeft=4;spacingRight=4;overflow=hidden;rotatable=0;points=[[0,0.5],[1,0.5]];portConstraint=eastwest;fillColor=none;fontSize=18;" vertex="1" parent="-6DW7zYq6y_BzRsonRjy-124">
          <mxGeometry y="26" width="240" height="30" as="geometry" />
        </mxCell>
        <mxCell id="-6DW7zYq6y_BzRsonRjy-126" value="" style="line;html=1;strokeWidth=1;align=left;verticalAlign=middle;spacingTop=-1;spacingLeft=3;spacingRight=3;rotatable=0;labelPosition=right;points=[];portConstraint=eastwest;fontSize=18;" vertex="1" parent="-6DW7zYq6y_BzRsonRjy-124">
          <mxGeometry y="56" width="240" height="10" as="geometry" />
        </mxCell>
        <mxCell id="-6DW7zYq6y_BzRsonRjy-135" style="edgeStyle=orthogonalEdgeStyle;rounded=0;orthogonalLoop=1;jettySize=auto;html=1;endArrow=block;endFill=0;endSize=16;startSize=16;fontSize=18;entryX=0.5;entryY=1;entryDx=0;entryDy=0;" edge="1" parent="WIyWlLk6GJQsqaUBKTNV-1" source="-6DW7zYq6y_BzRsonRjy-131" target="-6DW7zYq6y_BzRsonRjy-30">
          <mxGeometry relative="1" as="geometry">
            <Array as="points">
              <mxPoint x="920" y="40" />
              <mxPoint x="555" y="40" />
            </Array>
            <mxPoint x="660" y="90" as="targetPoint" />
          </mxGeometry>
        </mxCell>
        <mxCell id="tx-_oFmXZFqS6ZWU__PL-1" style="edgeStyle=orthogonalEdgeStyle;rounded=0;orthogonalLoop=1;jettySize=auto;html=1;exitX=0.5;exitY=0;exitDx=0;exitDy=0;entryX=0.5;entryY=1;entryDx=0;entryDy=0;endSize=16;startSize=16;" edge="1" parent="WIyWlLk6GJQsqaUBKTNV-1" source="-6DW7zYq6y_BzRsonRjy-131" target="-6DW7zYq6y_BzRsonRjy-48">
          <mxGeometry relative="1" as="geometry">
            <Array as="points">
              <mxPoint x="1055" y="-250" />
              <mxPoint x="1470" y="-250" />
            </Array>
          </mxGeometry>
        </mxCell>
        <mxCell id="tx-_oFmXZFqS6ZWU__PL-2" style="edgeStyle=orthogonalEdgeStyle;rounded=0;orthogonalLoop=1;jettySize=auto;html=1;exitX=0.5;exitY=0;exitDx=0;exitDy=0;entryX=0.5;entryY=1;entryDx=0;entryDy=0;endSize=16;startSize=16;" edge="1" parent="WIyWlLk6GJQsqaUBKTNV-1" source="-6DW7zYq6y_BzRsonRjy-131" target="-6DW7zYq6y_BzRsonRjy-36">
          <mxGeometry relative="1" as="geometry">
            <Array as="points">
              <mxPoint x="1055" y="-250" />
              <mxPoint x="1099" y="-250" />
            </Array>
          </mxGeometry>
        </mxCell>
        <mxCell id="tx-_oFmXZFqS6ZWU__PL-3" style="edgeStyle=orthogonalEdgeStyle;rounded=0;orthogonalLoop=1;jettySize=auto;html=1;exitX=0.5;exitY=0;exitDx=0;exitDy=0;entryX=0.5;entryY=1;entryDx=0;entryDy=0;endSize=16;startSize=16;" edge="1" parent="WIyWlLk6GJQsqaUBKTNV-1" source="-6DW7zYq6y_BzRsonRjy-131" target="-6DW7zYq6y_BzRsonRjy-44">
          <mxGeometry relative="1" as="geometry">
            <Array as="points">
              <mxPoint x="1055" y="-250" />
              <mxPoint x="690" y="-250" />
            </Array>
          </mxGeometry>
        </mxCell>
        <mxCell id="-6DW7zYq6y_BzRsonRjy-131" value="Administrator Terminal" style="swimlane;fontStyle=0;align=center;verticalAlign=top;childLayout=stackLayout;horizontal=1;startSize=26;horizontalStack=0;resizeParent=1;resizeLast=0;collapsible=1;marginBottom=0;rounded=0;shadow=0;strokeWidth=1;fillColor=none;fontSize=18;" vertex="1" parent="WIyWlLk6GJQsqaUBKTNV-1">
          <mxGeometry x="769.5" y="70" width="570" height="216" as="geometry">
            <mxRectangle x="550" y="140" width="160" height="26" as="alternateBounds" />
          </mxGeometry>
        </mxCell>
        <mxCell id="tx-_oFmXZFqS6ZWU__PL-15" value="" style="line;html=1;strokeWidth=1;align=left;verticalAlign=middle;spacingTop=-1;spacingLeft=3;spacingRight=3;rotatable=0;labelPosition=right;points=[];portConstraint=eastwest;fontSize=18;" vertex="1" parent="-6DW7zYq6y_BzRsonRjy-131">
          <mxGeometry y="26" width="570" height="10" as="geometry" />
        </mxCell>
        <mxCell id="8jj2PPhvfqXt3ZcQU5WW-6" value="+generateCertificate(Diagnosis): Certificate" style="text;align=left;verticalAlign=top;spacingLeft=4;spacingRight=4;overflow=hidden;rotatable=0;points=[[0,0.5],[1,0.5]];portConstraint=eastwest;fontSize=18;" vertex="1" parent="-6DW7zYq6y_BzRsonRjy-131">
          <mxGeometry y="36" width="570" height="30" as="geometry" />
        </mxCell>
        <mxCell id="-6DW7zYq6y_BzRsonRjy-172" value="+scheduleAppointment(Medical Test, Client, Doctor): Appointment" style="text;align=left;verticalAlign=top;spacingLeft=4;spacingRight=4;overflow=hidden;rotatable=0;points=[[0,0.5],[1,0.5]];portConstraint=eastwest;fontSize=18;" vertex="1" parent="-6DW7zYq6y_BzRsonRjy-131">
          <mxGeometry y="66" width="570" height="30" as="geometry" />
        </mxCell>
        <mxCell id="-6DW7zYq6y_BzRsonRjy-134" value="+addFunds(Float): void" style="text;align=left;verticalAlign=top;spacingLeft=4;spacingRight=4;overflow=hidden;rotatable=0;points=[[0,0.5],[1,0.5]];portConstraint=eastwest;fontSize=18;" vertex="1" parent="-6DW7zYq6y_BzRsonRjy-131">
          <mxGeometry y="96" width="570" height="30" as="geometry" />
        </mxCell>
        <mxCell id="qu2V2VWLO_ML4UmyBdYV-8" value="+getDoctorsForMedicalTest(Medical Test): Doctor[]" style="text;align=left;verticalAlign=top;spacingLeft=4;spacingRight=4;overflow=hidden;rotatable=0;points=[[0,0.5],[1,0.5]];portConstraint=eastwest;fontSize=18;" vertex="1" parent="-6DW7zYq6y_BzRsonRjy-131">
          <mxGeometry y="126" width="570" height="30" as="geometry" />
        </mxCell>
        <mxCell id="qu2V2VWLO_ML4UmyBdYV-7" value="+getMedicalTests(): Medical Test[]" style="text;align=left;verticalAlign=top;spacingLeft=4;spacingRight=4;overflow=hidden;rotatable=0;points=[[0,0.5],[1,0.5]];portConstraint=eastwest;fontSize=18;" vertex="1" parent="-6DW7zYq6y_BzRsonRjy-131">
          <mxGeometry y="156" width="570" height="30" as="geometry" />
        </mxCell>
        <mxCell id="qu2V2VWLO_ML4UmyBdYV-9" value="+getCheckUpTest(): Medical Test" style="text;align=left;verticalAlign=top;spacingLeft=4;spacingRight=4;overflow=hidden;rotatable=0;points=[[0,0.5],[1,0.5]];portConstraint=eastwest;fontSize=18;" vertex="1" parent="-6DW7zYq6y_BzRsonRjy-131">
          <mxGeometry y="186" width="570" height="30" as="geometry" />
        </mxCell>
        <mxCell id="-6DW7zYq6y_BzRsonRjy-156" style="edgeStyle=orthogonalEdgeStyle;rounded=0;orthogonalLoop=1;jettySize=auto;html=1;exitX=0.5;exitY=1;exitDx=0;exitDy=0;endArrow=diamondThin;endFill=0;endSize=16;startSize=16;fontSize=18;" edge="1" parent="WIyWlLk6GJQsqaUBKTNV-1" source="-6DW7zYq6y_BzRsonRjy-152" target="-6DW7zYq6y_BzRsonRjy-40">
          <mxGeometry relative="1" as="geometry">
            <Array as="points">
              <mxPoint x="175" y="-540" />
              <mxPoint x="-110" y="-540" />
            </Array>
          </mxGeometry>
        </mxCell>
        <mxCell id="-6DW7zYq6y_BzRsonRjy-159" style="edgeStyle=orthogonalEdgeStyle;rounded=0;orthogonalLoop=1;jettySize=auto;html=1;endArrow=diamondThin;endFill=1;endSize=16;startSize=16;fontSize=18;" edge="1" parent="WIyWlLk6GJQsqaUBKTNV-1" source="-6DW7zYq6y_BzRsonRjy-152" target="-6DW7zYq6y_BzRsonRjy-110">
          <mxGeometry relative="1" as="geometry" />
        </mxCell>
        <mxCell id="-6DW7zYq6y_BzRsonRjy-160" style="edgeStyle=orthogonalEdgeStyle;rounded=0;orthogonalLoop=1;jettySize=auto;html=1;endArrow=diamondThin;endFill=1;startSize=16;endSize=16;fontSize=18;" edge="1" parent="WIyWlLk6GJQsqaUBKTNV-1" source="-6DW7zYq6y_BzRsonRjy-152" target="-6DW7zYq6y_BzRsonRjy-70">
          <mxGeometry relative="1" as="geometry" />
        </mxCell>
        <mxCell id="-6DW7zYq6y_BzRsonRjy-152" value="Medical Test" style="swimlane;fontStyle=0;align=center;verticalAlign=top;childLayout=stackLayout;horizontal=1;startSize=30;horizontalStack=0;resizeParent=1;resizeLast=0;collapsible=1;marginBottom=0;rounded=0;shadow=0;strokeWidth=1;fillColor=none;fontSize=18;" vertex="1" parent="WIyWlLk6GJQsqaUBKTNV-1">
          <mxGeometry x="50" y="-710" width="250" height="130" as="geometry">
            <mxRectangle x="550" y="140" width="160" height="26" as="alternateBounds" />
          </mxGeometry>
        </mxCell>
        <mxCell id="cQhhvO6iUi7YfnyoF7Wx-0" value="-name: String" style="text;align=left;verticalAlign=top;spacingLeft=4;spacingRight=4;overflow=hidden;rotatable=0;points=[[0,0.5],[1,0.5]];portConstraint=eastwest;fontSize=18;" vertex="1" parent="-6DW7zYq6y_BzRsonRjy-152">
          <mxGeometry y="30" width="250" height="30" as="geometry" />
        </mxCell>
        <mxCell id="-6DW7zYq6y_BzRsonRjy-153" value="-requiredDoctor: Doctor Title" style="text;align=left;verticalAlign=top;spacingLeft=4;spacingRight=4;overflow=hidden;rotatable=0;points=[[0,0.5],[1,0.5]];portConstraint=eastwest;fillColor=none;fontSize=18;" vertex="1" parent="-6DW7zYq6y_BzRsonRjy-152">
          <mxGeometry y="60" width="250" height="30" as="geometry" />
        </mxCell>
        <mxCell id="8jj2PPhvfqXt3ZcQU5WW-8" value="-cost: Float" style="text;align=left;verticalAlign=top;spacingLeft=4;spacingRight=4;overflow=hidden;rotatable=0;points=[[0,0.5],[1,0.5]];portConstraint=eastwest;fontSize=18;" vertex="1" parent="-6DW7zYq6y_BzRsonRjy-152">
          <mxGeometry y="90" width="250" height="30" as="geometry" />
        </mxCell>
        <mxCell id="-6DW7zYq6y_BzRsonRjy-154" value="" style="line;html=1;strokeWidth=1;align=left;verticalAlign=middle;spacingTop=-1;spacingLeft=3;spacingRight=3;rotatable=0;labelPosition=right;points=[];portConstraint=eastwest;fontSize=18;" vertex="1" parent="-6DW7zYq6y_BzRsonRjy-152">
          <mxGeometry y="120" width="250" height="10" as="geometry" />
        </mxCell>
        <mxCell id="-6DW7zYq6y_BzRsonRjy-174" value="Doctor Terminal" style="swimlane;fontStyle=0;align=center;verticalAlign=top;childLayout=stackLayout;horizontal=1;startSize=26;horizontalStack=0;resizeParent=1;resizeLast=0;collapsible=1;marginBottom=0;rounded=0;shadow=0;strokeWidth=1;fillColor=none;fontSize=18;" vertex="1" parent="WIyWlLk6GJQsqaUBKTNV-1">
          <mxGeometry x="105" y="70" width="485" height="110" as="geometry">
            <mxRectangle x="550" y="140" width="160" height="26" as="alternateBounds" />
          </mxGeometry>
        </mxCell>
        <mxCell id="-6DW7zYq6y_BzRsonRjy-176" value="" style="line;html=1;strokeWidth=1;align=left;verticalAlign=middle;spacingTop=-1;spacingLeft=3;spacingRight=3;rotatable=0;labelPosition=right;points=[];portConstraint=eastwest;fontSize=18;" vertex="1" parent="-6DW7zYq6y_BzRsonRjy-174">
          <mxGeometry y="26" width="485" height="10" as="geometry" />
        </mxCell>
        <mxCell id="-6DW7zYq6y_BzRsonRjy-177" value="+getDiagnosis(Patient, Medical Test): Diagnosis" style="text;align=left;verticalAlign=top;spacingLeft=4;spacingRight=4;overflow=hidden;rotatable=0;points=[[0,0.5],[1,0.5]];portConstraint=eastwest;fontSize=18;" vertex="1" parent="-6DW7zYq6y_BzRsonRjy-174">
          <mxGeometry y="36" width="485" height="30" as="geometry" />
        </mxCell>
        <mxCell id="qu2V2VWLO_ML4UmyBdYV-6" value="+createDiagnosis(Patient, Medical Test, String): Diagnosis" style="text;align=left;verticalAlign=top;spacingLeft=4;spacingRight=4;overflow=hidden;rotatable=0;points=[[0,0.5],[1,0.5]];portConstraint=eastwest;fontSize=18;" vertex="1" parent="-6DW7zYq6y_BzRsonRjy-174">
          <mxGeometry y="66" width="485" height="30" as="geometry" />
        </mxCell>
        <mxCell id="-6DW7zYq6y_BzRsonRjy-179" style="edgeStyle=orthogonalEdgeStyle;rounded=0;orthogonalLoop=1;jettySize=auto;html=1;endArrow=block;endFill=0;endSize=16;startSize=16;fontSize=18;entryX=0.5;entryY=1;entryDx=0;entryDy=0;" edge="1" parent="WIyWlLk6GJQsqaUBKTNV-1" source="-6DW7zYq6y_BzRsonRjy-174" target="-6DW7zYq6y_BzRsonRjy-30">
          <mxGeometry relative="1" as="geometry">
            <mxPoint x="655" y="42" as="sourcePoint" />
            <mxPoint x="530" y="110" as="targetPoint" />
            <Array as="points">
              <mxPoint x="250" y="40" />
              <mxPoint x="555" y="40" />
            </Array>
          </mxGeometry>
        </mxCell>
        <mxCell id="-6DW7zYq6y_BzRsonRjy-185" value="&lt;&lt;enumeration&gt;&gt;&#xa;Doctor Title" style="swimlane;fontStyle=0;align=center;verticalAlign=top;childLayout=stackLayout;horizontal=1;startSize=50;horizontalStack=0;resizeParent=1;resizeLast=0;collapsible=1;marginBottom=0;rounded=0;shadow=0;strokeWidth=1;fillColor=none;fontSize=18;" vertex="1" parent="WIyWlLk6GJQsqaUBKTNV-1">
          <mxGeometry x="1389.5" y="-900" width="160" height="110" as="geometry">
            <mxRectangle x="550" y="140" width="160" height="26" as="alternateBounds" />
          </mxGeometry>
        </mxCell>
        <mxCell id="-6DW7zYq6y_BzRsonRjy-186" value="Pathologist" style="text;align=left;verticalAlign=top;spacingLeft=4;spacingRight=4;overflow=hidden;rotatable=0;points=[[0,0.5],[1,0.5]];portConstraint=eastwest;fontSize=18;" vertex="1" parent="-6DW7zYq6y_BzRsonRjy-185">
          <mxGeometry y="50" width="160" height="30" as="geometry" />
        </mxCell>
        <mxCell id="-6DW7zYq6y_BzRsonRjy-189" value="Practitioner" style="text;align=left;verticalAlign=top;spacingLeft=4;spacingRight=4;overflow=hidden;rotatable=0;points=[[0,0.5],[1,0.5]];portConstraint=eastwest;fontSize=18;" vertex="1" parent="-6DW7zYq6y_BzRsonRjy-185">
          <mxGeometry y="80" width="160" height="30" as="geometry" />
        </mxCell>
        <mxCell id="tx-_oFmXZFqS6ZWU__PL-5" value="Repository" style="text;html=1;strokeColor=none;fillColor=none;align=center;verticalAlign=middle;whiteSpace=wrap;rounded=0;strokeWidth=1;fontSize=45;" vertex="1" parent="WIyWlLk6GJQsqaUBKTNV-1">
          <mxGeometry x="-190" y="-990" width="60" height="30" as="geometry" />
        </mxCell>
        <mxCell id="tx-_oFmXZFqS6ZWU__PL-6" value="Schedule" style="text;html=1;strokeColor=none;fillColor=none;align=center;verticalAlign=middle;whiteSpace=wrap;rounded=0;strokeWidth=1;fontSize=45;" vertex="1" parent="WIyWlLk6GJQsqaUBKTNV-1">
          <mxGeometry x="634" y="-990" width="60" height="30" as="geometry" />
        </mxCell>
        <mxCell id="tx-_oFmXZFqS6ZWU__PL-7" value="Payment" style="text;html=1;strokeColor=none;fillColor=none;align=center;verticalAlign=middle;whiteSpace=wrap;rounded=0;strokeWidth=1;fontSize=45;" vertex="1" parent="WIyWlLk6GJQsqaUBKTNV-1">
          <mxGeometry x="1070" y="-990" width="60" height="30" as="geometry" />
        </mxCell>
        <mxCell id="tx-_oFmXZFqS6ZWU__PL-8" value="Clinic Staff" style="text;html=1;strokeColor=none;fillColor=none;align=center;verticalAlign=middle;whiteSpace=wrap;rounded=0;strokeWidth=1;fontSize=45;" vertex="1" parent="WIyWlLk6GJQsqaUBKTNV-1">
          <mxGeometry x="1439.5" y="-990" width="60" height="30" as="geometry" />
        </mxCell>
        <mxCell id="tx-_oFmXZFqS6ZWU__PL-10" value="Clinic Interface" style="text;html=1;strokeColor=none;fillColor=none;align=center;verticalAlign=middle;whiteSpace=wrap;rounded=0;strokeWidth=1;fontSize=45;" vertex="1" parent="WIyWlLk6GJQsqaUBKTNV-1">
          <mxGeometry x="-300" y="-190" width="385" height="30" as="geometry" />
        </mxCell>
        <mxCell id="tx-_oFmXZFqS6ZWU__PL-12" value="Client care provider" style="text;html=1;strokeColor=none;fillColor=none;align=center;verticalAlign=middle;whiteSpace=wrap;rounded=0;strokeWidth=1;fontSize=45;" vertex="1" parent="WIyWlLk6GJQsqaUBKTNV-1">
          <mxGeometry x="-320" y="434" width="480" height="30" as="geometry" />
        </mxCell>
        <mxCell id="tx-_oFmXZFqS6ZWU__PL-13" style="edgeStyle=orthogonalEdgeStyle;rounded=0;orthogonalLoop=1;jettySize=auto;html=1;endSize=16;startSize=16;" edge="1" parent="WIyWlLk6GJQsqaUBKTNV-1" source="-6DW7zYq6y_BzRsonRjy-16" target="-6DW7zYq6y_BzRsonRjy-3">
          <mxGeometry relative="1" as="geometry">
            <Array as="points">
              <mxPoint x="130" y="864" />
              <mxPoint x="130" y="864" />
            </Array>
          </mxGeometry>
        </mxCell>
      </root>
    </mxGraphModel>
  </diagram>
</mxfile>
